HIERARCHY
ROOT Hips
{
	OFFSET 0.000000 0.000000 0.000000
	CHANNELS 6 Xposition Yposition Zposition Zrotation Yrotation Xrotation 
	JOINT LHipJoint
	{
		OFFSET 0.000000 0.000000 0.000000
		CHANNELS 3 Zrotation Yrotation Xrotation
		JOINT LeftUpLeg
		{
			OFFSET 1.363060 -1.794630 0.839290
			CHANNELS 3 Zrotation Yrotation Xrotation
			JOINT LeftLeg
			{
				OFFSET 2.448110 -6.726130 0.000000
				CHANNELS 3 Zrotation Yrotation Xrotation
				JOINT LeftFoot
				{
					OFFSET 2.562200 -7.039590 0.000000
					CHANNELS 3 Zrotation Yrotation Xrotation
					JOINT LeftToeBase
					{
						OFFSET 0.157640 -0.433110 2.322550
						CHANNELS 3 Zrotation Yrotation Xrotation
						End Site
						{
							OFFSET 0.000000 0.000000 0.000000
						}
					}
				}
			}
		}
	}
	JOINT RHipJoint
	{
		OFFSET 0.000000 0.000000 0.000000
		CHANNELS 3 Zrotation Yrotation Xrotation
		JOINT RightUpLeg
		{
			OFFSET -1.305520 -1.794630 0.839290
			CHANNELS 3 Zrotation Yrotation Xrotation
			JOINT RightLeg
			{
				OFFSET -2.542530 -6.985550 0.000000
				CHANNELS 3 Zrotation Yrotation Xrotation
				JOINT RightFoot
				{
					OFFSET -2.568260 -7.056230 0.000000
					CHANNELS 3 Zrotation Yrotation Xrotation
					JOINT RightToeBase
					{
						OFFSET -0.164730 -0.452590 2.363150
						CHANNELS 3 Zrotation Yrotation Xrotation
						End Site
						{
							OFFSET 0.000000 0.000000 0.000000
						}
					}
				}
			}
		}
	}
	JOINT LowerBack
	{
		OFFSET 0.000000 0.000000 0.000000
		CHANNELS 3 Zrotation Yrotation Xrotation
		JOINT Spine
		{
			OFFSET 0.028270 2.035590 -0.193380
			CHANNELS 3 Zrotation Yrotation Xrotation
			JOINT Spine1
			{
				OFFSET 0.056720 2.048850 -0.042750
				CHANNELS 3 Zrotation Yrotation Xrotation
				JOINT Neck
				{
					OFFSET 0.000000 0.000000 0.000000
					CHANNELS 3 Zrotation Yrotation Xrotation
					JOINT Neck1
					{
						OFFSET -0.054170 1.746240 0.172020
						CHANNELS 3 Zrotation Yrotation Xrotation
						JOINT Head
						{
							OFFSET 0.104070 1.761360 -0.123970
							CHANNELS 3 Zrotation Yrotation Xrotation
							End Site
							{
								OFFSET 0.000000 0.000000 0.000000
							}
						}
					}
				}
				JOINT LeftShoulder
				{
					OFFSET 0.000000 0.000000 0.000000
					CHANNELS 3 Zrotation Yrotation Xrotation
					JOINT LeftArm
					{
						OFFSET 3.362410 1.200890 -0.311210
						CHANNELS 3 Zrotation Yrotation Xrotation
						JOINT LeftForeArm
						{
							OFFSET 4.983000 -0.000000 -0.000000
							CHANNELS 3 Zrotation Yrotation Xrotation
							JOINT LeftHand
							{
								OFFSET 3.483560 -0.000000 -0.000000
								CHANNELS 3 Zrotation Yrotation Xrotation
								JOINT LeftFingerBase
								{
									OFFSET 0.000000 0.000000 0.000000
									CHANNELS 3 Zrotation Yrotation Xrotation
									JOINT LeftHandIndex1
									{
										OFFSET 0.715260 -0.000000 -0.000000
										CHANNELS 3 Zrotation Yrotation Xrotation
										End Site
										{
											OFFSET 0.000000 0.000000 0.000000
										}
									}
								}
								JOINT LThumb
								{
									OFFSET 0.000000 0.000000 0.000000
									CHANNELS 3 Zrotation Yrotation Xrotation
									End Site
									{
										OFFSET 0.000000 0.000000 0.000000
									}
								}
							}
						}
					}
				}
				JOINT RightShoulder
				{
					OFFSET 0.000000 0.000000 0.000000
					CHANNELS 3 Zrotation Yrotation Xrotation
					JOINT RightArm
					{
						OFFSET -3.136600 1.374050 -0.404650
						CHANNELS 3 Zrotation Yrotation Xrotation
						JOINT RightForeArm
						{
							OFFSET -5.241900 -0.000000 -0.000000
							CHANNELS 3 Zrotation Yrotation Xrotation
							JOINT RightHand
							{
								OFFSET -3.444170 -0.000000 -0.000000
								CHANNELS 3 Zrotation Yrotation Xrotation
								JOINT RightFingerBase
								{
									OFFSET 0.000000 0.000000 0.000000
									CHANNELS 3 Zrotation Yrotation Xrotation
									JOINT RightHandIndex1
									{
										OFFSET -0.622530 -0.000000 -0.000000
										CHANNELS 3 Zrotation Yrotation Xrotation
										End Site
										{
											OFFSET 0.000000 0.000000 0.000000
										}
									}
								}
								JOINT RThumb
								{
									OFFSET 0.000000 0.000000 0.000000
									CHANNELS 3 Zrotation Yrotation Xrotation
									End Site
									{
										OFFSET 0.000000 0.000000 0.000000
									}
								}
							}
						}
					}
				}
			}
		}
	}
}
MOTION
Frames: 4
Frame Time: 0.008333
-2.063732 18.011760 39.447933 179.127828 2.634550 -177.920153 1.206874 4.754803 4.104683 -23.563419 -11.889129 -18.828557 1.185826 7.951782 27.500826 -0.634137 3.228249 4.227270 0.158500 -2.564900 -7.069700 -2.177383 -5.215836 4.517962 18.873920 7.311934 -12.506019 -11.950456 -16.033348 62.352482 2.786593 -18.765751 16.995573 -0.776200 -5.625100 15.700300 -2.136730 -1.258625 13.757514 5.785836 -2.255761 15.184824 5.698780 -0.181365 -12.787612 -1.374329 -1.227442 -13.084216 -2.114110 0.138130 17.403246 -1.172200 0.092200 7.219200 -1.832485 1.104533 -1.006340 -89.065664 20.861339 13.463438 21.473276 -29.619364 -5.320730 0.275935 -0.555222 -6.507470 10.210135 49.935446 7.757400 -7.125000 0.000000 0.000000 -59.405500 74.075000 -44.346900 0.189166 -0.665463 0.165111 86.677113 -14.734565 -38.174430 -72.097771 59.544674 -40.863312 -0.509411 0.207908 -36.148443 -9.663323 -0.878073 0.223500 7.125000 0.000000 0.000000 13.646200 -31.169300 4.732600 
-2.070192 18.006791 39.330956 178.872573 1.870162 -178.041505 1.215018 4.778846 4.131116 -23.973632 -12.129823 -18.094388 1.161511 7.848471 27.348422 -0.496836 2.634732 4.382569 0.108600 -2.124500 -5.849900 -2.247325 -5.208678 4.507877 18.846497 7.003885 -13.980773 -12.482011 -16.338560 64.272492 2.851874 -18.525429 15.834672 -0.626600 -5.065500 14.095400 -2.367546 -1.455860 14.021288 5.616877 -2.525858 15.325464 5.878692 -0.295907 -12.798922 -1.165232 -1.205185 -13.831668 -2.205391 0.165837 17.659073 -1.229600 0.092900 7.421300 -1.823523 1.105351 -1.001846 -88.636351 20.329423 13.852612 21.293006 -29.393254 -5.217657 0.275777 -0.553590 -6.773480 10.030447 50.815154 7.713000 -7.125000 0.000000 0.000000 -62.397000 74.371400 -47.269400 0.208751 -0.650728 0.150915 86.389624 -14.512644 -38.346509 -74.062756 59.775786 -42.424899 -0.535798 0.221464 -34.827075 -9.766024 -0.469250 0.160600 7.125000 0.000000 0.000000 13.528600 -30.787700 4.817200 
-2.111436 18.010667 39.146001 178.712021 2.518295 -178.525697 1.201978 4.838431 4.197904 -24.494111 -11.742339 -16.851865 1.154076 7.746253 27.246327 -0.524331 2.690425 3.921640 0.046400 -1.390700 -3.824400 -2.316587 -5.210053 4.512771 18.537530 7.616456 -14.618746 -12.903965 -16.568441 65.835281 2.761408 -17.782671 15.080130 -0.470500 -4.399300 12.202700 -2.488103 -1.380063 13.899955 5.492280 -2.437450 15.558657 5.858000 -0.260308 -12.585790 -1.197374 -1.072545 -13.684112 -2.457030 0.417679 17.679626 -1.277200 0.197600 7.415200 -1.820126 1.086665 -1.003944 -88.686184 20.388197 13.758407 21.257860 -29.345564 -5.197444 0.271313 -0.557626 -7.064862 10.429341 51.289808 8.087700 -7.125000 0.000000 0.000000 -63.799200 74.705000 -48.872200 0.216774 -0.651851 0.129890 85.641069 -14.550042 -37.995542 -76.023681 59.944864 -43.977725 -0.556605 0.213348 -33.597487 -10.203720 -0.316924 0.140900 7.125000 0.000000 0.000000 13.191500 -30.645100 4.737500 
-2.130220 18.004704 39.013819 178.581251 2.288734 -178.515897 1.220191 4.844444 4.203782 -24.824199 -11.667838 -16.281330 1.138394 7.676934 27.162315 -0.415935 2.235212 3.557376 0.045700 -1.380100 -3.795400 -2.371561 -5.198383 4.501691 18.479783 7.736503 -16.089027 -13.356942 -16.822103 67.453385 2.829419 -17.577012 13.901420 -0.380600 -3.961800 10.969200 -2.801518 -1.477862 14.197221 5.620459 -2.652611 15.180513 6.188749 -0.331326 -12.970865 -1.353835 -1.044161 -13.069214 -2.736947 0.562816 17.683820 -1.314800 0.258500 7.312600 -1.840209 1.094920 -0.995887 -88.828742 20.563972 13.475626 21.123333 -29.171439 -5.124769 0.267101 -0.562172 -6.813896 10.627283 51.151272 8.232100 -7.125000 0.000000 0.000000 -63.221000 74.731300 -48.386300 0.228027 -0.655531 0.122168 84.723603 -14.909752 -37.568549 -78.294870 60.090236 -45.799746 -0.564652 0.213939 -33.157573 -10.275641 -0.231756 0.127300 7.125000 0.000000 0.000000 13.131900 -30.564500 4.741100 
